<svg width="1000" height="1000" viewBox="0 0 1000 1000" xmlns="http://www.w3.org/2000/svg">
    <style>
    .red{
      	fill: #cb3c33;
    }

    .green{
      	fill: #389826;
    }

    .blue{
        fill: none;
      	stroke: #4063d8;
		stroke-width: 5px;
    }

    .violet{
      	fill: #9558b2;
    }

    .title{
        stroke-linecap: round;
        fill-rule: evenodd;
        font-size: 9pt;
        font-size: 180px;
        text-anchor: middle;
        fill: #4063d8;
        stroke: #4063d8;
        stroke-width: 0.25mm;
    }

    .mask{
        stroke-width: 5mm;
        fill: #000;
        stroke: #000;
    }

    .clear{
        fill: white;
    }

  	</style>


    <!-- FRAME -->
    <mask id="textmask">
        <rect width="100%" height="100%" fill="#fff"></rect>
        <g transform="translate(90.134, 122)">
            <path class="mask title" d="M 185.22 56.7 L 185.22 42.66 L 180.36 42.66 C 169.56 52.2 151.2 56.7 140.76 56.7 L 140.76 61.56 A 21.181 21.181 0 0 1 146.578 62.283 C 154.982 64.685 156.24 72.781 156.24 82.26 L 156.24 100.44 A 46.654 46.654 0 0 1 155.454 110.045 C 154.04 116.615 150.272 121.14 140.76 121.14 L 140.76 126 L 199.98 126 L 199.98 121.14 A 20.976 20.976 0 0 1 194.446 120.483 C 188.769 118.928 186.556 114.74 185.715 109.26 A 59.522 59.522 0 0 1 185.22 100.44 L 185.22 78.66 A 36.443 36.443 0 0 1 186.457 68.769 C 188.348 62.125 192.486 57.536 199.408 57.095 A 17.495 17.495 0 0 1 200.52 57.06 A 16.87 16.87 0 0 1 205.849 57.828 C 213.088 60.228 214.378 67.94 215.669 76.407 A 7942.97 7942.97 0 0 0 215.82 77.4 A 784.976 784.976 0 0 1 216.147 79.438 C 217.229 86.224 219.048 98.026 219.37 100.119 A 2544.168 2544.168 0 0 1 219.42 100.44 C 220.68 111.42 220.5 121.14 206.82 121.14 L 206.82 126 L 264.6 126 L 264.6 121.14 C 250.92 121.14 249.84 111.06 248.4 100.44 A 151.83 151.83 0 0 0 248.356 100.088 C 248.15 98.429 247.185 90.81 244.98 75.06 A 68.285 68.285 0 0 0 242.187 62.818 C 238.004 50.485 230.421 44.228 218.752 42.921 A 44.163 44.163 0 0 0 213.84 42.66 C 205.648 42.66 199.331 44.706 194.41 47.84 A 33.283 33.283 0 0 0 185.22 56.7 Z M 314.46 56.7 L 314.46 42.66 L 309.6 42.66 C 298.8 52.2 280.44 56.7 270 56.7 L 270 61.56 A 21.181 21.181 0 0 1 275.818 62.283 C 284.222 64.685 285.48 72.781 285.48 82.26 L 285.48 100.44 A 46.654 46.654 0 0 1 284.694 110.045 C 283.28 116.615 279.512 121.14 270 121.14 L 270 126 L 329.22 126 L 329.22 121.14 A 20.976 20.976 0 0 1 323.686 120.483 C 318.009 118.928 315.796 114.74 314.955 109.26 A 59.522 59.522 0 0 1 314.46 100.44 L 314.46 78.66 A 36.443 36.443 0 0 1 315.697 68.769 C 317.588 62.125 321.726 57.536 328.648 57.095 A 17.495 17.495 0 0 1 329.76 57.06 A 16.87 16.87 0 0 1 335.089 57.828 C 342.328 60.228 343.618 67.94 344.909 76.407 A 7942.97 7942.97 0 0 0 345.06 77.4 A 784.976 784.976 0 0 1 345.387 79.438 C 346.469 86.224 348.288 98.026 348.61 100.119 A 2544.168 2544.168 0 0 1 348.66 100.44 C 349.92 111.42 349.74 121.14 336.06 121.14 L 336.06 126 L 393.84 126 L 393.84 121.14 C 380.16 121.14 379.08 111.06 377.64 100.44 A 151.83 151.83 0 0 0 377.596 100.088 C 377.39 98.429 376.425 90.81 374.22 75.06 A 68.285 68.285 0 0 0 371.427 62.818 C 367.244 50.485 359.661 44.228 347.992 42.921 A 44.163 44.163 0 0 0 343.08 42.66 C 334.888 42.66 328.571 44.706 323.65 47.84 A 33.283 33.283 0 0 0 314.46 56.7 Z M 114.12 100.26 L 70.56 0 L 62.1 0 L 22.68 100.26 C 18.881 109.916 14.804 118.597 4.572 120.551 A 24.338 24.338 0 0 1 0 120.96 L 0 126 L 44.28 126 L 44.28 120.96 A 33.435 33.435 0 0 1 38.258 120.474 C 29.121 118.788 26.051 112.613 30.42 100.26 C 32.292 95.423 33.894 91.398 34.288 90.412 A 288.165 288.165 0 0 1 34.38 90.18 L 78.12 90.18 L 82.62 100.26 A 77.575 77.575 0 0 1 83.944 103.875 C 87.401 114.167 86.154 119.567 77.337 120.722 A 31.558 31.558 0 0 1 73.26 120.96 L 73.26 126 L 135.36 126 L 135.36 120.96 C 121.68 120.96 119.52 111.78 114.12 100.26 Z M 717.48 82.26 L 717.48 122.04 C 717.48 131.742 719.648 137.942 722.218 145.456 A 898.833 898.833 0 0 1 722.52 146.34 C 726.12 156.24 722.88 165.42 713.7 165.42 C 709.162 165.42 705.387 163.386 704.083 159.105 A 11.524 11.524 0 0 1 703.62 156.42 A 19.425 19.425 0 0 1 703.592 155.623 C 703.52 150.649 705.513 147.739 709.292 146.617 A 12.887 12.887 0 0 1 711.72 146.16 A 11.984 11.984 0 0 0 711.472 143.792 C 710.475 138.875 706.42 133.149 698.4 132.84 A 18.448 18.448 0 0 0 697.677 132.826 C 688.92 132.826 682.323 139.164 683.082 150.054 A 25.645 25.645 0 0 0 683.1 150.3 C 684.36 165.42 701.46 171.9 713.7 171.9 C 740.16 171.9 746.64 152.82 746.64 127.08 L 746.64 42.66 L 741.78 42.66 A 51.931 51.931 0 0 1 726.391 51.665 C 717.625 55.103 708.348 56.7 702 56.7 L 702 61.56 A 21.181 21.181 0 0 1 707.818 62.283 C 716.222 64.685 717.48 72.781 717.48 82.26 Z M 576.18 116.1 A 5.034 5.034 0 0 0 578.075 117.479 C 580.214 118.389 583.187 118.11 586.26 116.64 A 59.421 59.421 0 0 0 586.336 116.847 C 586.993 118.635 587.179 118.865 587.7 120.6 A 17.316 17.316 0 0 1 584.836 123.264 C 582.381 125.078 579.084 126.537 574.598 127.213 A 38.944 38.944 0 0 1 568.8 127.62 A 43.794 43.794 0 0 1 564.115 127.369 C 555.714 126.462 547.314 123.016 545.04 115.74 A 24.824 24.824 0 0 1 540.06 121.39 C 535.817 124.913 530.792 126.574 525.767 127.241 A 46.476 46.476 0 0 1 519.66 127.62 A 77.525 77.525 0 0 1 519.642 127.62 C 513.638 127.619 507.779 126.832 502.756 125.037 A 20.509 20.509 0 0 1 488.16 109.62 C 486.067 98.707 490.306 88.416 503.969 82.765 A 52.344 52.344 0 0 1 513.54 79.92 A 81.452 81.452 0 0 1 514.752 79.685 C 530.365 76.774 540.123 79.58 539.084 68.945 A 21.024 21.024 0 0 0 538.92 67.68 C 538.117 63.131 536.916 58.493 534.814 54.971 A 10.959 10.959 0 0 0 525.06 48.96 A 16.741 16.741 0 0 0 524.897 48.948 C 513.67 48.167 508.534 59.248 515.52 64.98 A 17.074 17.074 0 0 1 513.997 67.271 C 509.611 72.804 503.268 73.004 498.78 70.92 A 9.392 9.392 0 0 1 494.685 67.111 C 493.243 64.523 493.088 61.121 494.64 57.24 C 498.307 47.309 510.143 43.733 519.913 42.878 A 57.272 57.272 0 0 1 524.88 42.66 C 546.93 42.66 559.062 48.252 564.991 61.052 A 49.478 49.478 0 0 1 568.8 74.88 A 5128.533 5128.533 0 0 1 568.955 75.998 C 571.05 91.14 571.975 98.327 572.176 99.915 A 191.679 191.679 0 0 1 572.22 100.26 C 573.101 105.397 573.981 111.133 575.252 114.344 A 7.397 7.397 0 0 0 576.18 116.1 Z M 477.36 97.74 C 461.52 114.84 426.78 111.96 422.46 88.74 L 478.08 79.38 C 478.98 55.62 462.78 42.66 438.66 42.66 C 411.66 42.66 389.88 59.58 392.4 88.56 A 41.509 41.509 0 0 0 419.287 123.976 A 54.455 54.455 0 0 0 439.38 127.62 A 45.729 45.729 0 0 0 454.667 125.115 C 467.273 120.677 475.436 110.981 479.955 101.286 A 51.973 51.973 0 0 0 480.42 100.26 A 0.119 0.119 0 0 0 480.388 100.205 C 480.087 99.836 477.728 98.022 477.398 97.769 A 40.95 40.95 0 0 0 477.36 97.74 Z M 637.74 100.44 L 637.74 0 L 632.88 0 A 51.931 51.931 0 0 1 617.491 9.005 C 608.725 12.443 599.448 14.04 593.1 14.04 L 593.1 19.08 A 21.181 21.181 0 0 1 598.918 19.803 C 607.322 22.205 608.58 30.301 608.58 39.78 L 608.58 100.44 A 46.654 46.654 0 0 1 607.794 110.045 C 606.38 116.615 602.612 121.14 593.1 121.14 L 593.1 126 L 653.22 126 L 653.22 121.14 C 639.36 121.14 637.74 111.78 637.74 100.44 Z M 804.24 100.44 L 804.24 0 L 799.38 0 A 51.931 51.931 0 0 1 783.991 9.005 C 775.225 12.443 765.948 14.04 759.6 14.04 L 759.6 19.08 A 21.181 21.181 0 0 1 765.418 19.803 C 773.822 22.205 775.08 30.301 775.08 39.78 L 775.08 100.44 A 46.654 46.654 0 0 1 774.294 110.045 C 772.88 116.615 769.112 121.14 759.6 121.14 L 759.6 126 L 819.72 126 L 819.72 121.14 C 805.86 121.14 804.24 111.78 804.24 100.44 Z M 37.26 82.98 L 55.08 37.62 L 75.06 82.98 L 37.26 82.98 Z M 676.98 94.86 A 21.275 21.275 0 0 0 668.302 96.605 A 15.768 15.768 0 0 0 658.62 111.24 C 658.62 120.42 666 127.62 676.98 127.62 A 21.867 21.867 0 0 0 685.521 125.985 A 15.753 15.753 0 0 0 695.52 111.24 A 15.892 15.892 0 0 0 684.158 95.979 A 22.491 22.491 0 0 0 676.98 94.86 Z M 729 34.2 A 18.433 18.433 0 0 0 741.078 29.797 A 16.727 16.727 0 0 0 747 17.1 A 17.356 17.356 0 0 0 731.998 0.233 A 19.264 19.264 0 0 0 729 0 A 18.376 18.376 0 0 0 715.333 6.022 A 16.526 16.526 0 0 0 711 17.1 A 17.514 17.514 0 0 0 726.492 34.033 A 18.792 18.792 0 0 0 729 34.2 Z M 450.9 76.68 L 421.38 81.72 A 63.158 63.158 0 0 1 420.911 75.891 C 420.625 67.226 422.299 59.667 425.852 54.803 A 13.127 13.127 0 0 1 435.42 49.14 C 447.562 48.084 451.618 58.898 450.953 75.528 A 95.683 95.683 0 0 1 450.9 76.68 Z M 516.42 104.94 A 14.067 14.067 0 0 0 519.545 111.879 C 522.807 115.779 527.951 117.673 532.44 116.46 A 15.441 15.441 0 0 0 534.172 115.958 C 541.395 113.386 543.382 106.132 542.88 98.1 A 386.064 386.064 0 0 0 542.752 96.603 C 542.229 90.608 541.565 84.614 540.9 80.46 A 6.332 6.332 0 0 1 538.452 83.218 C 536.686 84.331 533.772 85.258 528.3 86.76 A 17.029 17.029 0 0 0 518.373 94.239 C 516.635 97.186 515.853 100.808 516.42 104.94 Z" />
        </g>
    </mask>

    <g mask="url(#textmask)">
        <!-- GREEN -->
        <circle class="green" cx="275" cy="942" r="18" />
        <!-- RED -->
        <circle class="red" cx="688" cy="720" r="18" /> <!--  -->
        <!-- VIOLET -->
        <circle class="violet" cx="813" cy="948" r="18" />
        <!-- BLUE -->
        <path class="blue" d="M   0   50 S 200   51  400   50 S 600   51  700   50 S 800   51 1000   50 M   0  100 S 200  111  400  106 S 600  108  700  106 S 800  110 1000  100 M   0  150 S 200  177  400  164 S 600  167  700  163 S 800  173 1000  150 M   0  200 S 200  251  400  227 S 600  230  700  224 S 800  243 1000  200 M   0  250 S 200  334  400  293 S 600  295  700  288 S 800  318 1000  250 M   0  300 S 200  425  400  363 S 600  365  700  355 S 800  400 1000  300 M   0  350 S 200  526  400  437 S 600  437  700  425 S 800  489 1000  350 M   0  400 S 200  636  400  516 S 600  512  700  498 S 800  584 1000  400 M   0  450 S 200  756  400  599 S 600  590  700  575 S 800  686 1000  450 M   0  500 S 200  886  400  686 S 600  671  700  655 S 800  794 1000  500 M   0  550 S 200 1026  400  777 S 600  755  700  738 S 800  910 1000  550 M   0  600 S 200 1177  400  873 S 600  842  700  825 S 800 1032 1000  600 M   0  650 S 200 1338  400  973 S 600  932  700  914 S 800 1161 1000  650 M   0  700 S 200 1510  400 1078 S 600 1025  700 1007 S 800 1297 1000  700 M   0  750 S 200 1693  400 1188 S 600 1120  700 1103 S 800 1441 1000  750 M   0  800 S 200 1887  400 1302 S 600 1219  700 1203 S 800 1591 1000  800 M   0  850 S 200 2092  400 1421 S 600 1320  700 1306 S 800 1748 1000  850 M   0  900 S 200 2309  400 1544 S 600 1424  700 1412 S 800 1913 1000  900 M   0  950 S 200 2537  400 1672 S 600 1531  700 1522 S 800 2085 1000  950 " />
    </g>

    <g transform="translate(90.134, 122)">
        <path class="blue title" d="M 185.22 56.7 L 185.22 42.66 L 180.36 42.66 C 169.56 52.2 151.2 56.7 140.76 56.7 L 140.76 61.56 A 21.181 21.181 0 0 1 146.578 62.283 C 154.982 64.685 156.24 72.781 156.24 82.26 L 156.24 100.44 A 46.654 46.654 0 0 1 155.454 110.045 C 154.04 116.615 150.272 121.14 140.76 121.14 L 140.76 126 L 199.98 126 L 199.98 121.14 A 20.976 20.976 0 0 1 194.446 120.483 C 188.769 118.928 186.556 114.74 185.715 109.26 A 59.522 59.522 0 0 1 185.22 100.44 L 185.22 78.66 A 36.443 36.443 0 0 1 186.457 68.769 C 188.348 62.125 192.486 57.536 199.408 57.095 A 17.495 17.495 0 0 1 200.52 57.06 A 16.87 16.87 0 0 1 205.849 57.828 C 213.088 60.228 214.378 67.94 215.669 76.407 A 7942.97 7942.97 0 0 0 215.82 77.4 A 784.976 784.976 0 0 1 216.147 79.438 C 217.229 86.224 219.048 98.026 219.37 100.119 A 2544.168 2544.168 0 0 1 219.42 100.44 C 220.68 111.42 220.5 121.14 206.82 121.14 L 206.82 126 L 264.6 126 L 264.6 121.14 C 250.92 121.14 249.84 111.06 248.4 100.44 A 151.83 151.83 0 0 0 248.356 100.088 C 248.15 98.429 247.185 90.81 244.98 75.06 A 68.285 68.285 0 0 0 242.187 62.818 C 238.004 50.485 230.421 44.228 218.752 42.921 A 44.163 44.163 0 0 0 213.84 42.66 C 205.648 42.66 199.331 44.706 194.41 47.84 A 33.283 33.283 0 0 0 185.22 56.7 Z M 314.46 56.7 L 314.46 42.66 L 309.6 42.66 C 298.8 52.2 280.44 56.7 270 56.7 L 270 61.56 A 21.181 21.181 0 0 1 275.818 62.283 C 284.222 64.685 285.48 72.781 285.48 82.26 L 285.48 100.44 A 46.654 46.654 0 0 1 284.694 110.045 C 283.28 116.615 279.512 121.14 270 121.14 L 270 126 L 329.22 126 L 329.22 121.14 A 20.976 20.976 0 0 1 323.686 120.483 C 318.009 118.928 315.796 114.74 314.955 109.26 A 59.522 59.522 0 0 1 314.46 100.44 L 314.46 78.66 A 36.443 36.443 0 0 1 315.697 68.769 C 317.588 62.125 321.726 57.536 328.648 57.095 A 17.495 17.495 0 0 1 329.76 57.06 A 16.87 16.87 0 0 1 335.089 57.828 C 342.328 60.228 343.618 67.94 344.909 76.407 A 7942.97 7942.97 0 0 0 345.06 77.4 A 784.976 784.976 0 0 1 345.387 79.438 C 346.469 86.224 348.288 98.026 348.61 100.119 A 2544.168 2544.168 0 0 1 348.66 100.44 C 349.92 111.42 349.74 121.14 336.06 121.14 L 336.06 126 L 393.84 126 L 393.84 121.14 C 380.16 121.14 379.08 111.06 377.64 100.44 A 151.83 151.83 0 0 0 377.596 100.088 C 377.39 98.429 376.425 90.81 374.22 75.06 A 68.285 68.285 0 0 0 371.427 62.818 C 367.244 50.485 359.661 44.228 347.992 42.921 A 44.163 44.163 0 0 0 343.08 42.66 C 334.888 42.66 328.571 44.706 323.65 47.84 A 33.283 33.283 0 0 0 314.46 56.7 Z M 114.12 100.26 L 70.56 0 L 62.1 0 L 22.68 100.26 C 18.881 109.916 14.804 118.597 4.572 120.551 A 24.338 24.338 0 0 1 0 120.96 L 0 126 L 44.28 126 L 44.28 120.96 A 33.435 33.435 0 0 1 38.258 120.474 C 29.121 118.788 26.051 112.613 30.42 100.26 C 32.292 95.423 33.894 91.398 34.288 90.412 A 288.165 288.165 0 0 1 34.38 90.18 L 78.12 90.18 L 82.62 100.26 A 77.575 77.575 0 0 1 83.944 103.875 C 87.401 114.167 86.154 119.567 77.337 120.722 A 31.558 31.558 0 0 1 73.26 120.96 L 73.26 126 L 135.36 126 L 135.36 120.96 C 121.68 120.96 119.52 111.78 114.12 100.26 Z M 717.48 82.26 L 717.48 122.04 C 717.48 131.742 719.648 137.942 722.218 145.456 A 898.833 898.833 0 0 1 722.52 146.34 C 726.12 156.24 722.88 165.42 713.7 165.42 C 709.162 165.42 705.387 163.386 704.083 159.105 A 11.524 11.524 0 0 1 703.62 156.42 A 19.425 19.425 0 0 1 703.592 155.623 C 703.52 150.649 705.513 147.739 709.292 146.617 A 12.887 12.887 0 0 1 711.72 146.16 A 11.984 11.984 0 0 0 711.472 143.792 C 710.475 138.875 706.42 133.149 698.4 132.84 A 18.448 18.448 0 0 0 697.677 132.826 C 688.92 132.826 682.323 139.164 683.082 150.054 A 25.645 25.645 0 0 0 683.1 150.3 C 684.36 165.42 701.46 171.9 713.7 171.9 C 740.16 171.9 746.64 152.82 746.64 127.08 L 746.64 42.66 L 741.78 42.66 A 51.931 51.931 0 0 1 726.391 51.665 C 717.625 55.103 708.348 56.7 702 56.7 L 702 61.56 A 21.181 21.181 0 0 1 707.818 62.283 C 716.222 64.685 717.48 72.781 717.48 82.26 Z M 576.18 116.1 A 5.034 5.034 0 0 0 578.075 117.479 C 580.214 118.389 583.187 118.11 586.26 116.64 A 59.421 59.421 0 0 0 586.336 116.847 C 586.993 118.635 587.179 118.865 587.7 120.6 A 17.316 17.316 0 0 1 584.836 123.264 C 582.381 125.078 579.084 126.537 574.598 127.213 A 38.944 38.944 0 0 1 568.8 127.62 A 43.794 43.794 0 0 1 564.115 127.369 C 555.714 126.462 547.314 123.016 545.04 115.74 A 24.824 24.824 0 0 1 540.06 121.39 C 535.817 124.913 530.792 126.574 525.767 127.241 A 46.476 46.476 0 0 1 519.66 127.62 A 77.525 77.525 0 0 1 519.642 127.62 C 513.638 127.619 507.779 126.832 502.756 125.037 A 20.509 20.509 0 0 1 488.16 109.62 C 486.067 98.707 490.306 88.416 503.969 82.765 A 52.344 52.344 0 0 1 513.54 79.92 A 81.452 81.452 0 0 1 514.752 79.685 C 530.365 76.774 540.123 79.58 539.084 68.945 A 21.024 21.024 0 0 0 538.92 67.68 C 538.117 63.131 536.916 58.493 534.814 54.971 A 10.959 10.959 0 0 0 525.06 48.96 A 16.741 16.741 0 0 0 524.897 48.948 C 513.67 48.167 508.534 59.248 515.52 64.98 A 17.074 17.074 0 0 1 513.997 67.271 C 509.611 72.804 503.268 73.004 498.78 70.92 A 9.392 9.392 0 0 1 494.685 67.111 C 493.243 64.523 493.088 61.121 494.64 57.24 C 498.307 47.309 510.143 43.733 519.913 42.878 A 57.272 57.272 0 0 1 524.88 42.66 C 546.93 42.66 559.062 48.252 564.991 61.052 A 49.478 49.478 0 0 1 568.8 74.88 A 5128.533 5128.533 0 0 1 568.955 75.998 C 571.05 91.14 571.975 98.327 572.176 99.915 A 191.679 191.679 0 0 1 572.22 100.26 C 573.101 105.397 573.981 111.133 575.252 114.344 A 7.397 7.397 0 0 0 576.18 116.1 Z M 477.36 97.74 C 461.52 114.84 426.78 111.96 422.46 88.74 L 478.08 79.38 C 478.98 55.62 462.78 42.66 438.66 42.66 C 411.66 42.66 389.88 59.58 392.4 88.56 A 41.509 41.509 0 0 0 419.287 123.976 A 54.455 54.455 0 0 0 439.38 127.62 A 45.729 45.729 0 0 0 454.667 125.115 C 467.273 120.677 475.436 110.981 479.955 101.286 A 51.973 51.973 0 0 0 480.42 100.26 A 0.119 0.119 0 0 0 480.388 100.205 C 480.087 99.836 477.728 98.022 477.398 97.769 A 40.95 40.95 0 0 0 477.36 97.74 Z M 637.74 100.44 L 637.74 0 L 632.88 0 A 51.931 51.931 0 0 1 617.491 9.005 C 608.725 12.443 599.448 14.04 593.1 14.04 L 593.1 19.08 A 21.181 21.181 0 0 1 598.918 19.803 C 607.322 22.205 608.58 30.301 608.58 39.78 L 608.58 100.44 A 46.654 46.654 0 0 1 607.794 110.045 C 606.38 116.615 602.612 121.14 593.1 121.14 L 593.1 126 L 653.22 126 L 653.22 121.14 C 639.36 121.14 637.74 111.78 637.74 100.44 Z M 804.24 100.44 L 804.24 0 L 799.38 0 A 51.931 51.931 0 0 1 783.991 9.005 C 775.225 12.443 765.948 14.04 759.6 14.04 L 759.6 19.08 A 21.181 21.181 0 0 1 765.418 19.803 C 773.822 22.205 775.08 30.301 775.08 39.78 L 775.08 100.44 A 46.654 46.654 0 0 1 774.294 110.045 C 772.88 116.615 769.112 121.14 759.6 121.14 L 759.6 126 L 819.72 126 L 819.72 121.14 C 805.86 121.14 804.24 111.78 804.24 100.44 Z M 37.26 82.98 L 55.08 37.62 L 75.06 82.98 L 37.26 82.98 Z M 676.98 94.86 A 21.275 21.275 0 0 0 668.302 96.605 A 15.768 15.768 0 0 0 658.62 111.24 C 658.62 120.42 666 127.62 676.98 127.62 A 21.867 21.867 0 0 0 685.521 125.985 A 15.753 15.753 0 0 0 695.52 111.24 A 15.892 15.892 0 0 0 684.158 95.979 A 22.491 22.491 0 0 0 676.98 94.86 Z M 729 34.2 A 18.433 18.433 0 0 0 741.078 29.797 A 16.727 16.727 0 0 0 747 17.1 A 17.356 17.356 0 0 0 731.998 0.233 A 19.264 19.264 0 0 0 729 0 A 18.376 18.376 0 0 0 715.333 6.022 A 16.526 16.526 0 0 0 711 17.1 A 17.514 17.514 0 0 0 726.492 34.033 A 18.792 18.792 0 0 0 729 34.2 Z M 450.9 76.68 L 421.38 81.72 A 63.158 63.158 0 0 1 420.911 75.891 C 420.625 67.226 422.299 59.667 425.852 54.803 A 13.127 13.127 0 0 1 435.42 49.14 C 447.562 48.084 451.618 58.898 450.953 75.528 A 95.683 95.683 0 0 1 450.9 76.68 Z M 516.42 104.94 A 14.067 14.067 0 0 0 519.545 111.879 C 522.807 115.779 527.951 117.673 532.44 116.46 A 15.441 15.441 0 0 0 534.172 115.958 C 541.395 113.386 543.382 106.132 542.88 98.1 A 386.064 386.064 0 0 0 542.752 96.603 C 542.229 90.608 541.565 84.614 540.9 80.46 A 6.332 6.332 0 0 1 538.452 83.218 C 536.686 84.331 533.772 85.258 528.3 86.76 A 17.029 17.029 0 0 0 518.373 94.239 C 516.635 97.186 515.853 100.808 516.42 104.94 Z" />
    </g>
</svg>